<svg viewBox="0 0 600 400" xmlns="http://www.w3.org/2000/svg">
<g transform="translate(72, 364)">
<g>
<g>
<path d="M0,-178.87921 L0,-178.87921 L24,-204.54524 L48,-241.7875 L72,-236.60875 L96,-285.08844 L120,-273.25766 L144,-258.76114 L168,-274.60892 L192,-257.87613 L216,-299.33344 L240,-320.69925 L264,-287.07272 L288,-306.6259 L312,-297.99176 L336,-132.51765 L360,-245.2116 L384,-220.88103 L408,-222.98482 L432,-205.34573 L456,-177.38203 L480,-139.81784" fill="none" stroke="#e59000" stroke-linejoin="round" stroke-width="3"/>
</g>
<g>
<circle cx="0" cy="-178.8792066440954" fill="#e59000" r="4"/>
<circle cx="24" cy="-204.5452356770153" fill="#e59000" r="4"/>
<circle cx="48" cy="-241.78749977498322" fill="#e59000" r="4"/>
<circle cx="72" cy="-236.60875641718346" fill="#e59000" r="4"/>
<circle cx="96" cy="-285.0884443782076" fill="#e59000" r="4"/>
<circle cx="120" cy="-273.2576615083629" fill="#e59000" r="4"/>
<circle cx="144" cy="-258.7611479620739" fill="#e59000" r="4"/>
<circle cx="168" cy="-274.6089077000651" fill="#e59000" r="4"/>
<circle cx="192" cy="-257.8761211133934" fill="#e59000" r="4"/>
<circle cx="216" cy="-299.3334386116313" fill="#e59000" r="4"/>
<circle cx="240" cy="-320.6992515765078" fill="#e59000" r="4"/>
<circle cx="264" cy="-287.07272886148615" fill="#e59000" r="4"/>
<circle cx="288" cy="-306.62588514291144" fill="#e59000" r="4"/>
<circle cx="312" cy="-297.99175859475724" fill="#e59000" r="4"/>
<circle cx="336" cy="-132.51766055825172" fill="#e59000" r="4"/>
<circle cx="360" cy="-245.21159242565665" fill="#e59000" r="4"/>
<circle cx="384" cy="-220.88103483517637" fill="#e59000" r="4"/>
<circle cx="408" cy="-222.98481019676564" fill="#e59000" r="4"/>
<circle cx="432" cy="-205.34573933978132" fill="#e59000" r="4"/>
<circle cx="456" cy="-177.38202690239163" fill="#e59000" r="4"/>
<circle cx="480" cy="-139.81784580330304" fill="#e59000" r="4"/>
</g>
</g>
<g transform="translate(380, -340)">
<text font-size="12" text-anchor="start" x="0" y="0">
Branching TOTAL
</text>
<line stroke="#e59000" stroke-width="3" x1="-10" x2="-3" y1="-4" y2="-4"/>
</g>
<g>
<g>
<path d="M0,-159.31606 L0,-159.31606 L24,-157.22751 L48,-155.47783 L72,-153.24768 L96,-151.28731 L120,-149.5612 L144,-147.58649 L168,-145.67358 L192,-143.73534 L216,-141.99268 L240,-140.0153 L264,-138.09283 L288,-136.21886 L312,-134.41924 L336,-132.51765 L360,-130.59958 L384,-128.94542 L408,-126.99893 L432,-125.18461 L456,-123.34512 L480,-122.0896" fill="none" stroke="#e5a73e" stroke-linejoin="round" stroke-width="1.5"/>
</g>
<g>
<circle cx="0" cy="-159.3160492451194" fill="#e5a73e" r="2.5"/>
<circle cx="24" cy="-157.22750927665703" fill="#e5a73e" r="2.5"/>
<circle cx="48" cy="-155.47782655569688" fill="#e5a73e" r="2.5"/>
<circle cx="72" cy="-153.2476881553955" fill="#e5a73e" r="2.5"/>
<circle cx="96" cy="-151.28731083558108" fill="#e5a73e" r="2.5"/>
<circle cx="120" cy="-149.56120882270915" fill="#e5a73e" r="2.5"/>
<circle cx="144" cy="-147.58648903054214" fill="#e5a73e" r="2.5"/>
<circle cx="168" cy="-145.67358748621754" fill="#e5a73e" r="2.5"/>
<circle cx="192" cy="-143.73533954816907" fill="#e5a73e" r="2.5"/>
<circle cx="216" cy="-141.9926697017848" fill="#e5a73e" r="2.5"/>
<circle cx="240" cy="-140.0153008216271" fill="#e5a73e" r="2.5"/>
<circle cx="264" cy="-138.0928274316592" fill="#e5a73e" r="2.5"/>
<circle cx="288" cy="-136.21886061043537" fill="#e5a73e" r="2.5"/>
<circle cx="312" cy="-134.41924066585042" fill="#e5a73e" r="2.5"/>
<circle cx="336" cy="-132.51766055825172" fill="#e5a73e" r="2.5"/>
<circle cx="360" cy="-130.5995757882615" fill="#e5a73e" r="2.5"/>
<circle cx="384" cy="-128.9454211176273" fill="#e5a73e" r="2.5"/>
<circle cx="408" cy="-126.99893068114902" fill="#e5a73e" r="2.5"/>
<circle cx="432" cy="-125.18460797255254" fill="#e5a73e" r="2.5"/>
<circle cx="456" cy="-123.3451246114336" fill="#e5a73e" r="2.5"/>
<circle cx="480" cy="-122.08960140275745" fill="#e5a73e" r="2.5"/>
</g>
</g>
<g transform="translate(380, -322)">
<text font-size="12" text-anchor="start" x="0" y="0">
Branching CORE
</text>
<line stroke="#e5a73e" stroke-width="1.5" x1="-10" x2="-3" y1="-4" y2="-4"/>
</g>
<g>
<g>
<path d="M0,-19.563158 L0,-19.563158 L24,-47.317726 L48,-86.30967 L72,-83.36107 L96,-133.80113 L120,-123.69645 L144,-111.17466 L168,-128.93532 L192,-114.140785 L216,-157.34077 L240,-180.68394 L264,-148.9799 L288,-170.40703 L312,-163.57253 L360,-114.612015 L384,-91.935616 L408,-95.98588 L432,-80.16113 L456,-54.036903 L480,-17.728245" fill="none" stroke="#e4ca9d" stroke-linejoin="round" stroke-width="1"/>
</g>
<g>
<circle cx="0" cy="-19.563157398976024" fill="#e4ca9d" r="2"/>
<circle cx="24" cy="-47.31772640035826" fill="#e4ca9d" r="2"/>
<circle cx="48" cy="-86.30967321928634" fill="#e4ca9d" r="2"/>
<circle cx="72" cy="-83.36106826178796" fill="#e4ca9d" r="2"/>
<circle cx="96" cy="-133.80113354262653" fill="#e4ca9d" r="2"/>
<circle cx="120" cy="-123.69645268565378" fill="#e4ca9d" r="2"/>
<circle cx="144" cy="-111.17465893153178" fill="#e4ca9d" r="2"/>
<circle cx="168" cy="-128.93532021384755" fill="#e4ca9d" r="2"/>
<circle cx="192" cy="-114.14078156522436" fill="#e4ca9d" r="2"/>
<circle cx="216" cy="-157.34076890984653" fill="#e4ca9d" r="2"/>
<circle cx="240" cy="-180.68395075488064" fill="#e4ca9d" r="2"/>
<circle cx="264" cy="-148.97990142982695" fill="#e4ca9d" r="2"/>
<circle cx="288" cy="-170.40702453247604" fill="#e4ca9d" r="2"/>
<circle cx="312" cy="-163.57251792890682" fill="#e4ca9d" r="2"/>
<circle cx="360" cy="-114.61201663739513" fill="#e4ca9d" r="2"/>
<circle cx="384" cy="-91.9356137175491" fill="#e4ca9d" r="2"/>
<circle cx="408" cy="-95.98587951561663" fill="#e4ca9d" r="2"/>
<circle cx="432" cy="-80.16113136722875" fill="#e4ca9d" r="2"/>
<circle cx="456" cy="-54.036902290958004" fill="#e4ca9d" r="2"/>
<circle cx="480" cy="-17.7282444005456" fill="#e4ca9d" r="2"/>
</g>
</g>
<g transform="translate(380, -304)">
<text font-size="12" text-anchor="start" x="0" y="0">
Branching ATOM
</text>
<line stroke="#e4ca9d" stroke-width="1" x1="-10" x2="-3" y1="-4" y2="-4"/>
</g>
<g>
<g>
<path d="M0,-188.92143 L0,-188.92143 L24,-196.38116 L48,-213.64046 L72,-196.48886 L96,-200.0775 L120,-190.21033 L144,-191.899 L168,-197.67432 L192,-188.27438 L216,-206.03061 L240,-199.07333 L264,-187.28316 L288,-183.68512 L312,-214.10559 L336,-192.99098 L360,-196.96954 L384,-208.64029 L408,-207.75351 L432,-202.63586 L456,-204.55988 L480,-200.16418" fill="none" stroke="#0369c5" stroke-linejoin="round" stroke-width="3"/>
</g>
<g>
<rect fill="#0369c5" height="8" width="8" x="-4" y="-192.921437454001"/>
<rect fill="#0369c5" height="8" width="8" x="20" y="-200.381169047181"/>
<rect fill="#0369c5" height="8" width="8" x="44" y="-217.64045923777593"/>
<rect fill="#0369c5" height="8" width="8" x="68" y="-200.48886605076413"/>
<rect fill="#0369c5" height="8" width="8" x="92" y="-204.07750169158115"/>
<rect fill="#0369c5" height="8" width="8" x="116" y="-194.21033467997356"/>
<rect fill="#0369c5" height="8" width="8" x="140" y="-195.89899885119655"/>
<rect fill="#0369c5" height="8" width="8" x="164" y="-201.67431161388734"/>
<rect fill="#0369c5" height="8" width="8" x="188" y="-192.27438529557963"/>
<rect fill="#0369c5" height="8" width="8" x="212" y="-210.03060928446865"/>
<rect fill="#0369c5" height="8" width="8" x="236" y="-203.07333970450813"/>
<rect fill="#0369c5" height="8" width="8" x="260" y="-191.28316209692872"/>
<rect fill="#0369c5" height="8" width="8" x="284" y="-187.6851232637811"/>
<rect fill="#0369c5" height="8" width="8" x="308" y="-218.10558647735536"/>
<rect fill="#0369c5" height="8" width="8" x="332" y="-196.99098676478485"/>
<rect fill="#0369c5" height="8" width="8" x="356" y="-200.9695374222641"/>
<rect fill="#0369c5" height="8" width="8" x="380" y="-212.6402885045973"/>
<rect fill="#0369c5" height="8" width="8" x="404" y="-211.75350614254168"/>
<rect fill="#0369c5" height="8" width="8" x="428" y="-206.6358704077712"/>
<rect fill="#0369c5" height="8" width="8" x="452" y="-208.55987152289296"/>
<rect fill="#0369c5" height="8" width="8" x="476" y="-204.16418679090947"/>
</g>
</g>
<g transform="translate(380, -286)">
<text font-size="12" text-anchor="start" x="0" y="0">
Branchless TOTAL
</text>
<line stroke="#0369c5" stroke-width="3" x1="-10" x2="-3" y1="-4" y2="-4"/>
</g>
<g>
<g>
<path d="M0,-159.2034 L0,-159.2034 L24,-159.86267 L48,-159.49023 L72,-159.34697 L96,-159.71097 L120,-159.6998 L144,-159.23244 L168,-159.2299 L192,-159.19643 L216,-159.7518 L240,-159.37053 L264,-159.1591 L288,-159.37372 L312,-159.43642 L336,-159.94312 L360,-160.30887 L384,-160.26186 L408,-159.27332 L432,-160.05614 L456,-159.41867 L480,-159.68755" fill="none" stroke="#1691ff" stroke-linejoin="round" stroke-width="1.5"/>
</g>
<g>
<rect fill="#1691ff" height="5" width="5" x="-2.5" y="-161.70339337142548"/>
<rect fill="#1691ff" height="5" width="5" x="21.5" y="-162.36267570527497"/>
<rect fill="#1691ff" height="5" width="5" x="45.5" y="-161.99022749093066"/>
<rect fill="#1691ff" height="5" width="5" x="69.5" y="-161.8469711440921"/>
<rect fill="#1691ff" height="5" width="5" x="93.5" y="-162.21097284897272"/>
<rect fill="#1691ff" height="5" width="5" x="117.5" y="-162.19979143485847"/>
<rect fill="#1691ff" height="5" width="5" x="141.5" y="-161.732431050894"/>
<rect fill="#1691ff" height="5" width="5" x="165.5" y="-161.72990799079813"/>
<rect fill="#1691ff" height="5" width="5" x="189.5" y="-161.6964278248947"/>
<rect fill="#1691ff" height="5" width="5" x="213.5" y="-162.25180196383815"/>
<rect fill="#1691ff" height="5" width="5" x="237.5" y="-161.87053472656999"/>
<rect fill="#1691ff" height="5" width="5" x="261.5" y="-161.65910312292422"/>
<rect fill="#1691ff" height="5" width="5" x="285.5" y="-161.87372266774148"/>
<rect fill="#1691ff" height="5" width="5" x="309.5" y="-161.93641505099706"/>
<rect fill="#1691ff" height="5" width="5" x="333.5" y="-162.44312170081355"/>
<rect fill="#1691ff" height="5" width="5" x="357.5" y="-162.8088610138791"/>
<rect fill="#1691ff" height="5" width="5" x="381.5" y="-162.76185216903608"/>
<rect fill="#1691ff" height="5" width="5" x="405.5" y="-161.77331835762786"/>
<rect fill="#1691ff" height="5" width="5" x="429.5" y="-162.55613884692823"/>
<rect fill="#1691ff" height="5" width="5" x="453.5" y="-161.91866312361256"/>
<rect fill="#1691ff" height="5" width="5" x="477.5" y="-162.18754013532944"/>
</g>
</g>
<g transform="translate(380, -268)">
<text font-size="12" text-anchor="start" x="0" y="0">
Branchless CORE
</text>
<line stroke="#1691ff" stroke-width="1.5" x1="-10" x2="-3" y1="-4" y2="-4"/>
</g>
<g>
<g>
<path d="M0,-29.718044 L0,-29.718044 L24,-36.518494 L48,-54.15023 L72,-37.141895 L96,-40.366528 L120,-30.510544 L144,-32.66657 L168,-38.444405 L192,-29.077957 L216,-46.27881 L240,-39.702805 L264,-28.12406 L288,-24.311401 L312,-54.66917 L336,-33.047867 L360,-36.660675 L384,-48.378437 L408,-48.480186 L432,-42.57973 L456,-45.14121 L480,-40.476646" fill="none" stroke="#88bae7" stroke-linejoin="round" stroke-width="1"/>
</g>
<g>
<rect fill="#88bae7" height="4" width="4" x="-2" y="-31.718044082575517"/>
<rect fill="#88bae7" height="4" width="4" x="22" y="-38.51849334190603"/>
<rect fill="#88bae7" height="4" width="4" x="46" y="-56.150231746845265"/>
<rect fill="#88bae7" height="4" width="4" x="70" y="-39.14189490667203"/>
<rect fill="#88bae7" height="4" width="4" x="94" y="-42.36652884260846"/>
<rect fill="#88bae7" height="4" width="4" x="118" y="-32.510543245115116"/>
<rect fill="#88bae7" height="4" width="4" x="142" y="-34.66656780030254"/>
<rect fill="#88bae7" height="4" width="4" x="166" y="-40.44440362308922"/>
<rect fill="#88bae7" height="4" width="4" x="190" y="-31.077957470684954"/>
<rect fill="#88bae7" height="4" width="4" x="214" y="-48.278807320630534"/>
<rect fill="#88bae7" height="4" width="4" x="238" y="-41.702804977938165"/>
<rect fill="#88bae7" height="4" width="4" x="262" y="-30.124058974004516"/>
<rect fill="#88bae7" height="4" width="4" x="286" y="-26.311400596039586"/>
<rect fill="#88bae7" height="4" width="4" x="310" y="-56.669171426358304"/>
<rect fill="#88bae7" height="4" width="4" x="334" y="-35.04786506397127"/>
<rect fill="#88bae7" height="4" width="4" x="358" y="-38.660676408385044"/>
<rect fill="#88bae7" height="4" width="4" x="382" y="-50.37843633556121"/>
<rect fill="#88bae7" height="4" width="4" x="406" y="-50.48018778491381"/>
<rect fill="#88bae7" height="4" width="4" x="430" y="-44.579731560842966"/>
<rect fill="#88bae7" height="4" width="4" x="454" y="-47.14120839928039"/>
<rect fill="#88bae7" height="4" width="4" x="478" y="-42.476646655580055"/>
</g>
</g>
<g transform="translate(380, -250)">
<text font-size="12" text-anchor="start" x="0" y="0">
Branchless ATOM
</text>
<line stroke="#88bae7" stroke-width="1" x1="-10" x2="-3" y1="-4" y2="-4"/>
</g>
<g>
<g>
<line stroke="black" stroke-width="1" x1="0" x2="0" y1="0" y2="10"/>
<line stroke="black" stroke-width="1" x1="96" x2="96" y1="0" y2="10"/>
<line stroke="black" stroke-width="1" x1="192" x2="192" y1="0" y2="10"/>
<line stroke="black" stroke-width="1" x1="288" x2="288" y1="0" y2="10"/>
<line stroke="black" stroke-width="1" x1="384" x2="384" y1="0" y2="10"/>
<line stroke="black" stroke-width="1" x1="480" x2="480" y1="0" y2="10"/>
</g>
<line stroke="black" stroke-width="1" x1="0" x2="480" y1="0" y2="0"/>
<g>
<text font-size="12" text-anchor="middle" x="0" y="20">
0
</text>
<text font-size="12" text-anchor="middle" x="96" y="20">
20
</text>
<text font-size="12" text-anchor="middle" x="192" y="20">
40
</text>
<text font-size="12" text-anchor="middle" x="288" y="20">
60
</text>
<text font-size="12" text-anchor="middle" x="384" y="20">
80
</text>
<text font-size="12" text-anchor="middle" x="480" y="20">
100
</text>
</g>
<text font-size="12" text-anchor="middle" x="240" y="30">
Ratio [True/False]
</text>
</g>
<g>
<g>
<line stroke="black" stroke-width="1" x1="0" x2="-10" y1="-0" y2="-0"/>
<line stroke="black" stroke-width="1" x1="0" x2="-10" y1="-25.147739158412833" y2="-25.147739158412833"/>
<line stroke="black" stroke-width="1" x1="0" x2="-10" y1="-50.295478316825665" y2="-50.295478316825665"/>
<line stroke="black" stroke-width="1" x1="0" x2="-10" y1="-75.4432174752385" y2="-75.4432174752385"/>
<line stroke="black" stroke-width="1" x1="0" x2="-10" y1="-100.59095663365133" y2="-100.59095663365133"/>
<line stroke="black" stroke-width="1" x1="0" x2="-10" y1="-125.73869579206416" y2="-125.73869579206416"/>
<line stroke="black" stroke-width="1" x1="0" x2="-10" y1="-150.886434950477" y2="-150.886434950477"/>
<line stroke="black" stroke-width="1" x1="0" x2="-10" y1="-176.03417410888983" y2="-176.03417410888983"/>
<line stroke="black" stroke-width="1" x1="0" x2="-10" y1="-201.18191326730266" y2="-201.18191326730266"/>
<line stroke="black" stroke-width="1" x1="0" x2="-10" y1="-226.3296524257155" y2="-226.3296524257155"/>
<line stroke="black" stroke-width="1" x1="0" x2="-10" y1="-251.47739158412833" y2="-251.47739158412833"/>
<line stroke="black" stroke-width="1" x1="0" x2="-10" y1="-276.62513074254116" y2="-276.62513074254116"/>
<line stroke="black" stroke-width="1" x1="0" x2="-10" y1="-301.772869900954" y2="-301.772869900954"/>
<line stroke="black" stroke-width="1" x1="0" x2="-10" y1="-326.9206090593668" y2="-326.9206090593668"/>
</g>
<line stroke="black" stroke-width="1" x1="0" x2="0" y1="0" y2="-340"/>
<g>
<text dominant-baseline="middle" font-size="12" text-anchor="end" x="-15" y="-0">
0
</text>
<text dominant-baseline="middle" font-size="12" text-anchor="end" x="-15" y="-25.147739158412833">
2
</text>
<text dominant-baseline="middle" font-size="12" text-anchor="end" x="-15" y="-50.295478316825665">
4
</text>
<text dominant-baseline="middle" font-size="12" text-anchor="end" x="-15" y="-75.4432174752385">
6
</text>
<text dominant-baseline="middle" font-size="12" text-anchor="end" x="-15" y="-100.59095663365133">
8
</text>
<text dominant-baseline="middle" font-size="12" text-anchor="end" x="-15" y="-125.73869579206416">
10
</text>
<text dominant-baseline="middle" font-size="12" text-anchor="end" x="-15" y="-150.886434950477">
12
</text>
<text dominant-baseline="middle" font-size="12" text-anchor="end" x="-15" y="-176.03417410888983">
14
</text>
<text dominant-baseline="middle" font-size="12" text-anchor="end" x="-15" y="-201.18191326730266">
16
</text>
<text dominant-baseline="middle" font-size="12" text-anchor="end" x="-15" y="-226.3296524257155">
18
</text>
<text dominant-baseline="middle" font-size="12" text-anchor="end" x="-15" y="-251.47739158412833">
20
</text>
<text dominant-baseline="middle" font-size="12" text-anchor="end" x="-15" y="-276.62513074254116">
22
</text>
<text dominant-baseline="middle" font-size="12" text-anchor="end" x="-15" y="-301.772869900954">
24
</text>
<text dominant-baseline="middle" font-size="12" text-anchor="end" x="-15" y="-326.9206090593668">
26
</text>
</g>
<text font-size="12" text-anchor="middle" transform="rotate(-90 -24 -170)" x="-24" y="-182">
Instructions E9
</text>
</g>
</g>
</svg>