<svg viewBox="0 0 600 400" xmlns="http://www.w3.org/2000/svg">
<g transform="translate(72, 364)">
<g>
<g>
<path d="M0,-0.0005041714 L0,-0.0005041714 L24,-11.367891 L48,-11.123259 L72,-20.634836 L96,-18.134445 L120,-16.275272 L144,-30.998657 L168,-20.300394 L192,-34.467373 L216,-19.282867 L240,-25.418747 L264,-34.74573 L288,-24.017014 L312,-25.504744 L336,-30.332602 L360,-26.341396 L384,-14.677471 L408,-17.867733 L432,-8.89121 L456,-11.8617735 L480,-0.0006110286" fill="none" stroke="#d14419" stroke-linejoin="round" stroke-width="2"/>
</g>
<g>
<circle cx="0" cy="-0.0005041714285714285" fill="#d14419" r="1"/>
<circle cx="24" cy="-11.367891257142858" fill="#d14419" r="1"/>
<circle cx="48" cy="-11.123258342857142" fill="#d14419" r="1"/>
<circle cx="72" cy="-20.634837028571432" fill="#d14419" r="1"/>
<circle cx="96" cy="-18.13444497142857" fill="#d14419" r="1"/>
<circle cx="120" cy="-16.27527154285714" fill="#d14419" r="1"/>
<circle cx="144" cy="-30.9986568" fill="#d14419" r="1"/>
<circle cx="168" cy="-20.3003936" fill="#d14419" r="1"/>
<circle cx="192" cy="-34.467371771428574" fill="#d14419" r="1"/>
<circle cx="216" cy="-19.282867828571426" fill="#d14419" r="1"/>
<circle cx="240" cy="-25.4187468" fill="#d14419" r="1"/>
<circle cx="264" cy="-34.74572977142857" fill="#d14419" r="1"/>
<circle cx="288" cy="-24.01701422857143" fill="#d14419" r="1"/>
<circle cx="312" cy="-25.50474445714286" fill="#d14419" r="1"/>
<circle cx="336" cy="-30.332601657142856" fill="#d14419" r="1"/>
<circle cx="360" cy="-26.341396057142862" fill="#d14419" r="1"/>
<circle cx="384" cy="-14.677470685714287" fill="#d14419" r="1"/>
<circle cx="408" cy="-17.867732457142854" fill="#d14419" r="1"/>
<circle cx="432" cy="-8.891209828571428" fill="#d14419" r="1"/>
<circle cx="456" cy="-11.861773314285713" fill="#d14419" r="1"/>
<circle cx="480" cy="-0.0006110285714285715" fill="#d14419" r="1"/>
</g>
</g>
<g transform="translate(380, -340)">
<text font-size="12" text-anchor="start" x="0" y="0">
Branching: Branch misses
</text>
<line stroke="#d14419" stroke-width="2" x1="-10" x2="-3" y1="-4" y2="-4"/>
</g>
<g>
<g>
<path d="M0,-0.00046045714 L0,-0.00046045714 L24,-0.029745143 L48,-0.00021662857 L72,-0.014483029 L96,-0.013961371 L120,-0.00038274284 L144,-0.016422972 L168,-0.000272 L192,-0.00047405713 L216,-0.008995429 L240,-0.010947028 L264,-0.017896628 L288,-0.022348685 L312,-0.00011171429 L336,-0.00021565714 L360,-0.0002176 L384,-0.0096764 L408,-0.01696697 L432,-0.036200285 L456,-0.00013017142 L480,-0.00018457143" fill="none" stroke="#5d00d1" stroke-linejoin="round" stroke-width="2"/>
</g>
<g>
<circle cx="0" cy="-0.00046045714285714284" fill="#5d00d1" r="1"/>
<circle cx="24" cy="-0.02974514285714286" fill="#5d00d1" r="1"/>
<circle cx="48" cy="-0.00021662857142857139" fill="#5d00d1" r="1"/>
<circle cx="72" cy="-0.014483028571428571" fill="#5d00d1" r="1"/>
<circle cx="96" cy="-0.013961371428571427" fill="#5d00d1" r="1"/>
<circle cx="120" cy="-0.0003827428571428571" fill="#5d00d1" r="1"/>
<circle cx="144" cy="-0.01642297142857143" fill="#5d00d1" r="1"/>
<circle cx="168" cy="-0.000272" fill="#5d00d1" r="1"/>
<circle cx="192" cy="-0.00047405714285714284" fill="#5d00d1" r="1"/>
<circle cx="216" cy="-0.008995428571428571" fill="#5d00d1" r="1"/>
<circle cx="240" cy="-0.01094702857142857" fill="#5d00d1" r="1"/>
<circle cx="264" cy="-0.01789662857142857" fill="#5d00d1" r="1"/>
<circle cx="288" cy="-0.022348685714285714" fill="#5d00d1" r="1"/>
<circle cx="312" cy="-0.00011171428571428572" fill="#5d00d1" r="1"/>
<circle cx="336" cy="-0.00021565714285714288" fill="#5d00d1" r="1"/>
<circle cx="360" cy="-0.00021760000000000003" fill="#5d00d1" r="1"/>
<circle cx="384" cy="-0.0096764" fill="#5d00d1" r="1"/>
<circle cx="408" cy="-0.01696697142857143" fill="#5d00d1" r="1"/>
<circle cx="432" cy="-0.036200285714285706" fill="#5d00d1" r="1"/>
<circle cx="456" cy="-0.0001301714285714286" fill="#5d00d1" r="1"/>
<circle cx="480" cy="-0.00018457142857142855" fill="#5d00d1" r="1"/>
</g>
</g>
<g transform="translate(380, -322)">
<text font-size="12" text-anchor="start" x="0" y="0">
Branchless: Branch misses
</text>
<line stroke="#5d00d1" stroke-width="2" x1="-10" x2="-3" y1="-4" y2="-4"/>
</g>
<g>
<g>
<path d="M0,-51.629536 L0,-51.629536 L24,-94.09649 L48,-125.36888 L72,-154.52786 L96,-183.3096 L120,-209.20815 L144,-240.00343 L168,-271.32083 L192,-295.74222 L216,-319.5639 L240,-333.4731 L264,-326.0713 L288,-298.36493 L312,-268.14822 L336,-238.46703 L360,-206.87018 L384,-178.76805 L408,-152.57956 L432,-124.51353 L456,-95.38997 L480,-44.910866" fill="none" stroke="#e5a73e" stroke-linejoin="round" stroke-width="2"/>
</g>
<g>
<circle cx="0" cy="-51.62953652" fill="#e5a73e" r="1"/>
<circle cx="24" cy="-94.09648871428571" fill="#e5a73e" r="1"/>
<circle cx="48" cy="-125.36887864" fill="#e5a73e" r="1"/>
<circle cx="72" cy="-154.52786178857144" fill="#e5a73e" r="1"/>
<circle cx="96" cy="-183.30959609142857" fill="#e5a73e" r="1"/>
<circle cx="120" cy="-209.20814516000002" fill="#e5a73e" r="1"/>
<circle cx="144" cy="-240.00343542857144" fill="#e5a73e" r="1"/>
<circle cx="168" cy="-271.32084300571427" fill="#e5a73e" r="1"/>
<circle cx="192" cy="-295.74220543999996" fill="#e5a73e" r="1"/>
<circle cx="216" cy="-319.5639023942857" fill="#e5a73e" r="1"/>
<circle cx="240" cy="-333.47310218285713" fill="#e5a73e" r="1"/>
<circle cx="264" cy="-326.0713014057143" fill="#e5a73e" r="1"/>
<circle cx="288" cy="-298.36492842857143" fill="#e5a73e" r="1"/>
<circle cx="312" cy="-268.14821732571426" fill="#e5a73e" r="1"/>
<circle cx="336" cy="-238.4670237085714" fill="#e5a73e" r="1"/>
<circle cx="360" cy="-206.87017275428573" fill="#e5a73e" r="1"/>
<circle cx="384" cy="-178.76805289142857" fill="#e5a73e" r="1"/>
<circle cx="408" cy="-152.57956144" fill="#e5a73e" r="1"/>
<circle cx="432" cy="-124.51352441714286" fill="#e5a73e" r="1"/>
<circle cx="456" cy="-95.3899652857143" fill="#e5a73e" r="1"/>
<circle cx="480" cy="-44.91086646285714" fill="#e5a73e" r="1"/>
</g>
</g>
<g transform="translate(380, -304)">
<text font-size="12" text-anchor="start" x="0" y="0">
Branching: Duration [s]
</text>
<line stroke="#e5a73e" stroke-width="2" x1="-10" x2="-3" y1="-4" y2="-4"/>
</g>
<g>
<g>
<path d="M0,-56.770206 L0,-56.770206 L24,-57.188984 L48,-57.392986 L72,-57.467148 L96,-56.832542 L120,-56.82476 L144,-57.010815 L168,-57.595818 L192,-56.982067 L216,-58.02411 L240,-56.80981 L264,-57.635204 L288,-56.643032 L312,-58.062004 L336,-58.063675 L360,-58.05289 L384,-56.868443 L408,-57.669193 L432,-57.912243 L456,-57.459892 L480,-56.69234" fill="none" stroke="#1691ff" stroke-linejoin="round" stroke-width="2"/>
</g>
<g>
<circle cx="0" cy="-56.77020819428571" fill="#1691ff" r="1"/>
<circle cx="24" cy="-57.18898386285714" fill="#1691ff" r="1"/>
<circle cx="48" cy="-57.39298561142857" fill="#1691ff" r="1"/>
<circle cx="72" cy="-57.46714602285714" fill="#1691ff" r="1"/>
<circle cx="96" cy="-56.832541074285714" fill="#1691ff" r="1"/>
<circle cx="120" cy="-56.82476158285715" fill="#1691ff" r="1"/>
<circle cx="144" cy="-57.01081618857143" fill="#1691ff" r="1"/>
<circle cx="168" cy="-57.59581824571429" fill="#1691ff" r="1"/>
<circle cx="192" cy="-56.98206520571428" fill="#1691ff" r="1"/>
<circle cx="216" cy="-58.02410934857143" fill="#1691ff" r="1"/>
<circle cx="240" cy="-56.80981061714285" fill="#1691ff" r="1"/>
<circle cx="264" cy="-57.63520481714285" fill="#1691ff" r="1"/>
<circle cx="288" cy="-56.64303216571428" fill="#1691ff" r="1"/>
<circle cx="312" cy="-58.06200516571429" fill="#1691ff" r="1"/>
<circle cx="336" cy="-58.06367437142857" fill="#1691ff" r="1"/>
<circle cx="360" cy="-58.05288957142857" fill="#1691ff" r="1"/>
<circle cx="384" cy="-56.86844070285714" fill="#1691ff" r="1"/>
<circle cx="408" cy="-57.669195005714286" fill="#1691ff" r="1"/>
<circle cx="432" cy="-57.91224138285715" fill="#1691ff" r="1"/>
<circle cx="456" cy="-57.45989100571428" fill="#1691ff" r="1"/>
<circle cx="480" cy="-56.69233954857143" fill="#1691ff" r="1"/>
</g>
</g>
<g transform="translate(380, -286)">
<text font-size="12" text-anchor="start" x="0" y="0">
Branchless: Duration [s]
</text>
<line stroke="#1691ff" stroke-width="2" x1="-10" x2="-3" y1="-4" y2="-4"/>
</g>
<g>
<g>
<line stroke="black" stroke-width="1" x1="0" x2="0" y1="0" y2="10"/>
<line stroke="black" stroke-width="1" x1="96" x2="96" y1="0" y2="10"/>
<line stroke="black" stroke-width="1" x1="192" x2="192" y1="0" y2="10"/>
<line stroke="black" stroke-width="1" x1="288" x2="288" y1="0" y2="10"/>
<line stroke="black" stroke-width="1" x1="384" x2="384" y1="0" y2="10"/>
<line stroke="black" stroke-width="1" x1="480" x2="480" y1="0" y2="10"/>
</g>
<line stroke="black" stroke-width="1" x1="0" x2="480" y1="0" y2="0"/>
<g>
<text font-size="12" text-anchor="middle" x="0" y="20">
0
</text>
<text font-size="12" text-anchor="middle" x="96" y="20">
20
</text>
<text font-size="12" text-anchor="middle" x="192" y="20">
40
</text>
<text font-size="12" text-anchor="middle" x="288" y="20">
60
</text>
<text font-size="12" text-anchor="middle" x="384" y="20">
80
</text>
<text font-size="12" text-anchor="middle" x="480" y="20">
100
</text>
</g>
<text font-size="12" text-anchor="middle" x="240" y="30">
Ratio [True/False]
</text>
</g>
<g>
<g>
<line stroke="black" stroke-width="1" x1="0" x2="-10" y1="-0" y2="-0"/>
<line stroke="black" stroke-width="1" x1="0" x2="-10" y1="-38.857142857142854" y2="-38.857142857142854"/>
<line stroke="black" stroke-width="1" x1="0" x2="-10" y1="-77.71428571428571" y2="-77.71428571428571"/>
<line stroke="black" stroke-width="1" x1="0" x2="-10" y1="-116.57142857142857" y2="-116.57142857142857"/>
<line stroke="black" stroke-width="1" x1="0" x2="-10" y1="-155.42857142857142" y2="-155.42857142857142"/>
<line stroke="black" stroke-width="1" x1="0" x2="-10" y1="-194.28571428571428" y2="-194.28571428571428"/>
<line stroke="black" stroke-width="1" x1="0" x2="-10" y1="-233.14285714285714" y2="-233.14285714285714"/>
<line stroke="black" stroke-width="1" x1="0" x2="-10" y1="-271.99999999999994" y2="-271.99999999999994"/>
<line stroke="black" stroke-width="1" x1="0" x2="-10" y1="-310.85714285714283" y2="-310.85714285714283"/>
</g>
<line stroke="black" stroke-width="1" x1="0" x2="0" y1="0" y2="-340"/>
<g>
<text dominant-baseline="middle" font-size="12" text-anchor="end" x="-15" y="-0">
0
</text>
<text dominant-baseline="middle" font-size="12" text-anchor="end" x="-15" y="-38.857142857142854">
0.4
</text>
<text dominant-baseline="middle" font-size="12" text-anchor="end" x="-15" y="-77.71428571428571">
0.8
</text>
<text dominant-baseline="middle" font-size="12" text-anchor="end" x="-15" y="-116.57142857142857">
1.2
</text>
<text dominant-baseline="middle" font-size="12" text-anchor="end" x="-15" y="-155.42857142857142">
1.6
</text>
<text dominant-baseline="middle" font-size="12" text-anchor="end" x="-15" y="-194.28571428571428">
2
</text>
<text dominant-baseline="middle" font-size="12" text-anchor="end" x="-15" y="-233.14285714285714">
2.4
</text>
<text dominant-baseline="middle" font-size="12" text-anchor="end" x="-15" y="-271.99999999999994">
2.8
</text>
<text dominant-baseline="middle" font-size="12" text-anchor="end" x="-15" y="-310.85714285714283">
3.2
</text>
</g>
<text font-size="12" text-anchor="middle" transform="rotate(-90 -36 -170)" x="-36" y="-182">
Branch misses / Duration [s]
</text>
</g>
</g>
</svg>